<?xml version="1.0" encoding="UTF-8"?>
<svg id="Camada_1" data-name="Camada 1" xmlns="http://www.w3.org/2000/svg" viewBox="0 0 1080 1080">
  <defs>
    <style>
      .cls-1 {
        fill: #fff;
      }

      .cls-2 {
        fill: none;
        stroke: #fff;
        stroke-miterlimit: 10;
        stroke-width: 15px;
      }
    </style>
  </defs>
  <path class="cls-1" d="M769.93,540.54c0,49.36-13.81,95.49-37.77,134.75-5.32,8.7-11.13,17.09-17.42,25.09-42.83,54.54-107.11,91.45-180.11,98.06h-224.55v-98.06h200.87c31.64,0,61.14-9.2,85.96-25.09,44.3-28.38,73.68-78.04,73.68-134.56,0-69.82-44.82-129.18-107.27-150.85-16.41-5.71-34.03-8.79-52.38-8.79h-102.8v180.74l-41.89,46.42-56.18,62.26v-388.96h200.87c44.29,0,85.98,11.12,122.43,30.72,31.78,17.07,59.58,40.6,81.65,68.82,34.41,43.95,54.91,99.31,54.91,159.45Z"/>
  <rect class="cls-2" x="82.92" y="82.92" width="914.16" height="914.16" rx="118.23" ry="118.23"/>
</svg>