<?xml version="1.0" encoding="UTF-8"?>
<svg id="Camada_1" data-name="Camada 1" xmlns="http://www.w3.org/2000/svg" viewBox="0 0 1080 1080">
  <defs>
    <style>
      .cls-1 {
        fill: #fff;
      }
    </style>
  </defs>
  <path class="cls-1" d="M231.12,540.21c0,18.93-5.3,36.63-14.49,51.69-2.04,3.34-4.27,6.55-6.68,9.62-16.43,20.92-41.08,35.08-69.08,37.61H54.73v-37.61h77.05c12.14,0,23.45-3.53,32.97-9.62,16.99-10.89,28.26-29.93,28.26-51.61,0-26.78-17.19-49.55-41.14-57.86-6.29-2.19-13.05-3.37-20.09-3.37h-39.43v69.33l-16.07,17.81-21.55,23.88v-149.19h77.05c16.99,0,32.98,4.26,46.96,11.78,12.19,6.55,22.85,15.57,31.32,26.4,13.2,16.86,21.06,38.09,21.06,61.16Z"/>
  <g>
    <path class="cls-1" d="M332.72,501.45h-33.7v77.1h33.7c25,0,42.08-15.42,42.08-38.55s-17.07-38.55-42.08-38.55ZM332.06,566.43h-18.72v-52.87h18.72c17.18,0,28.31,10.46,28.31,26.43s-11.12,26.43-28.31,26.43Z"/>
    <path class="cls-1" d="M412.68,501.45l-34.7,77.1h14.76l7.6-17.84h38.55l7.71,17.84h14.98l-34.81-77.1h-14.1ZM405.19,549.47l14.43-33.7,14.54,33.7h-28.97Z"/>
    <polygon class="cls-1" points="485.7 501.45 471.38 501.45 471.38 578.55 526.01 578.55 526.01 566.43 485.7 566.43 485.7 501.45"/>
    <polygon class="cls-1" points="520.28 513.57 545.84 513.57 545.84 578.55 560.15 578.55 560.15 513.57 585.71 513.57 585.71 501.45 520.28 501.45 520.28 513.57"/>
    <path class="cls-1" d="M631.42,500.35c-23.9,0-41.52,16.85-41.52,39.65s17.62,39.65,41.52,39.65,41.52-16.74,41.52-39.65-17.62-39.65-41.52-39.65ZM631.42,567.1c-15.53,0-27.1-11.35-27.1-27.1s11.57-27.1,27.1-27.1,27.1,11.34,27.1,27.1-11.57,27.1-27.1,27.1Z"/>
    <polygon class="cls-1" points="742.44 553.66 699.92 501.45 688.13 501.45 688.13 578.55 702.34 578.55 702.34 526.34 744.86 578.55 756.64 578.55 756.64 501.45 742.44 501.45 742.44 553.66"/>
    <polygon class="cls-1" points="822.06 501.45 807.74 501.45 807.74 578.55 862.37 578.55 862.37 566.43 822.06 566.43 822.06 501.45"/>
    <path class="cls-1" d="M898.06,501.45l-34.7,77.1h14.76l7.6-17.84h38.55l7.71,17.84h14.98l-34.81-77.1h-14.1ZM890.57,549.47l14.43-33.7,14.54,33.7h-28.97Z"/>
    <path class="cls-1" d="M1011.39,538.46c5.95-3.19,9.91-9.03,9.91-16.96,0-12.23-9.91-20.05-28.42-20.05h-36.13v77.1h38.33c19.83,0,30.18-7.71,30.18-20.93,0-10.02-5.62-16.52-13.88-19.16ZM971.08,512.68h20.27c9.91,0,15.53,3.52,15.53,10.68s-5.62,10.57-15.53,10.57h-20.27v-21.26ZM994.21,567.32h-23.13v-22.25h23.13c10.79,0,16.63,3.41,16.63,11.12s-5.84,11.12-16.63,11.12Z"/>
  </g>
</svg>