<?xml version="1.0" encoding="UTF-8"?>
<svg id="Camada_1" data-name="Camada 1" xmlns="http://www.w3.org/2000/svg" xmlns:xlink="http://www.w3.org/1999/xlink" viewBox="0 0 1080 1080">
  <defs>
    <style>
      .cls-1 {
        fill: #010a18;
        stroke: url(#Gradiente_sem_nome_55);
        stroke-miterlimit: 10;
        stroke-width: 9.34px;
      }

      .cls-2 {
        fill: #dfe9ea;
      }
    </style>
    <linearGradient id="Gradiente_sem_nome_55" data-name="Gradiente sem nome 55" x1="179.79" y1="445.93" x2="926.2" y2="445.93" gradientUnits="userSpaceOnUse">
      <stop offset="0" stop-color="#157e9c"/>
      <stop offset=".39" stop-color="#0d5f72"/>
      <stop offset=".72" stop-color="#208ea0"/>
      <stop offset="1" stop-color="#0d5f72"/>
    </linearGradient>
  </defs>
  <rect class="cls-1" x="184.46" y="77.4" width="737.07" height="737.07" rx="95.33" ry="95.33"/>
  <g>
    <path class="cls-2" d="M218.67,898.85h-34.21v78.25h34.21c25.38,0,42.7-15.65,42.7-39.12s-17.33-39.12-42.7-39.12ZM217.99,964.81h-19v-53.66h19c17.44,0,28.73,10.62,28.73,26.83s-11.29,26.83-28.73,26.83Z"/>
    <path class="cls-2" d="M299.82,898.85l-35.21,78.25h14.98l7.71-18.11h39.12l7.83,18.11h15.2l-35.32-78.25h-14.31ZM292.21,947.59l14.64-34.21,14.76,34.21h-29.4Z"/>
    <polygon class="cls-2" points="373.93 898.85 359.39 898.85 359.39 977.1 414.84 977.1 414.84 964.81 373.93 964.81 373.93 898.85"/>
    <polygon class="cls-2" points="409.02 911.15 434.96 911.15 434.96 977.1 449.49 977.1 449.49 911.15 475.42 911.15 475.42 898.85 409.02 898.85 409.02 911.15"/>
    <path class="cls-2" d="M521.81,897.74c-24.26,0-42.14,17.1-42.14,40.24s17.88,40.24,42.14,40.24,42.14-16.99,42.14-40.24-17.88-40.24-42.14-40.24ZM521.81,965.48c-15.76,0-27.5-11.51-27.5-27.5s11.74-27.5,27.5,27.5,27.5,11.51,27.5,27.5-11.74,27.5-27.5,27.5Z"/>
    <polygon class="cls-2" points="634.49 951.84 591.34 898.85 579.38 898.85 579.38 977.1 593.8 977.1 593.8 924.12 636.94 977.1 648.9 977.1 648.9 898.85 634.49 898.85 634.49 951.84"/>
    <polygon class="cls-2" points="715.3 898.85 700.77 898.85 700.77 977.1 756.21 977.1 756.21 964.81 715.3 964.81 715.3 898.85"/>
    <path class="cls-2" d="M792.43,898.85l-35.21,78.25h14.98l7.71-18.11h39.12l7.83,18.11h15.2l-35.32-78.25h-14.31ZM784.82,947.59l14.64-34.21,14.76,34.21h-29.4Z"/>
    <path class="cls-2" d="M907.45,936.41c6.04-3.24,10.06-9.17,10.06-17.21,0-12.41-10.06-20.34-28.84-20.34h-36.67v78.25h38.9c20.12,0,30.63-7.82,30.63-21.24,0-10.17-5.7-16.77-14.08-19.45ZM866.53,910.26h20.57c10.06,0,15.76,3.58,15.76,10.84s-5.7,10.73-15.76,10.73h-20.57v-21.57ZM890.01,965.7h-23.48v-22.58h23.48c10.96,0,16.88,3.47,16.88,11.29s-5.92,11.29-16.88,11.29Z"/>
  </g>
  <path class="cls-2" d="M738.38,446.37c0,39.8-11.13,76.99-30.46,108.65-4.29,7.02-8.97,13.78-14.05,20.23-34.54,43.97-86.36,73.73-145.22,79.07h-181.05v-79.07h161.96c25.51,0,49.3-7.42,69.31-20.23,35.72-22.88,59.41-62.92,59.41-108.49,0-56.29-36.14-104.15-86.49-121.63-13.23-4.6-27.43-7.09-42.23-7.09h-82.88v145.73l-33.78,37.43-45.3,50.2V237.56h161.96c35.71,0,69.32,8.96,98.71,24.77,25.62,13.76,48.04,32.73,65.83,55.48,27.74,35.44,44.27,80.07,44.27,128.56Z"/>
</svg>